<svg width="2134" height="1068" viewBox="0 0 2134 1068" fill="none" xmlns="http://www.w3.org/2000/svg">
<rect width="2134" height="1068" fill="#00FF56"/>
<path d="M1596.89 446.527C1600.42 449.627 1603.7 452.913 1606.87 456.385C1599.06 482.113 1596.76 502.881 1611.08 520.798C1607.8 517.388 1603.27 512.925 1599.8 509.701C1588.14 499.162 1586.22 477.525 1596.89 446.527Z" fill="white"/>
<path d="M1596.89 446.528C1600.42 449.627 1603.7 452.913 1606.87 456.385C1599.06 482.113 1596.76 502.881 1611.08 520.798C1607.8 517.388 1603.27 512.925 1599.8 509.701C1588.14 499.162 1586.22 477.525 1596.89 446.528ZM1596.58 446.218C1585.91 477.215 1587.77 498.852 1599.43 509.329C1603.02 512.739 1607.86 517.327 1611.27 520.984C1599.3 507.841 1597.01 485.709 1606.99 456.571C1603.77 452.975 1600.23 449.503 1596.58 446.218Z" fill="white"/>
<path d="M1577.42 431.834C1581.45 434.438 1585.35 437.166 1589.07 440.08C1578.04 472.07 1579.28 493.21 1590.19 501.765C1586.16 498.852 1580.77 494.946 1576.67 492.156L1574.94 491.04C1565.64 482.671 1566.32 466.056 1577.42 431.834Z" fill="white"/>
<path d="M1577.42 431.834C1581.45 434.438 1585.35 437.166 1589.07 440.08C1578.04 472.07 1579.28 493.21 1590.19 501.765C1586.16 498.852 1580.77 494.946 1576.67 492.156L1574.94 491.04C1565.64 482.671 1566.32 466.056 1577.42 431.834ZM1576.98 431.586C1565.58 464.754 1565.39 484.903 1574.38 490.668L1576.61 492.094C1580.83 495.008 1586.47 498.976 1590.62 502.075C1579.65 493.458 1578.41 472.318 1589.38 440.328C1585.42 437.228 1581.32 434.314 1576.98 431.586Z" fill="white"/>
<path d="M1555.6 420.055C1560 422.039 1564.34 424.209 1568.49 426.565C1556.9 460.29 1555.53 479.695 1562.73 483.725L1553.98 479.075L1544.5 474.549C1540.41 472.627 1543.82 454.215 1555.6 420.055Z" fill="white"/>
<path d="M1555.6 420.055C1560 422.039 1564.34 424.209 1568.49 426.565C1556.9 460.29 1555.53 479.695 1562.73 483.725L1553.98 479.075L1544.5 474.549C1540.41 472.628 1543.82 454.215 1555.6 420.055ZM1555.16 419.869C1543.38 454.091 1539.91 472.442 1543.88 474.301L1553.92 479.075L1563.22 484.035C1555.97 479.881 1557.27 460.476 1568.86 426.751C1564.46 424.271 1559.81 421.915 1555.16 419.869Z" fill="white"/>
<path d="M1532.22 411.376C1536.87 412.74 1541.4 414.29 1545.92 416.025C1540.72 431.276 1528.57 467.048 1530.67 468.784L1529 468.164C1523.61 466.304 1516.41 463.824 1510.96 462.15C1513.07 462.708 1520.38 445.783 1532.22 411.376Z" fill="white"/>
<path d="M1532.22 411.376C1536.87 412.74 1541.4 414.29 1545.92 416.026C1540.72 431.276 1528.57 467.048 1530.67 468.784L1529 468.164C1523.61 466.304 1516.41 463.824 1510.96 462.15C1513.07 462.708 1520.38 445.783 1532.22 411.376ZM1531.79 411.252C1519.95 445.598 1512.57 462.522 1510.28 461.964C1515.92 463.762 1523.42 466.18 1529 468.164L1531.29 469.032C1529.62 468.35 1534.52 450.619 1546.36 416.15C1541.58 414.352 1536.69 412.678 1531.79 411.252Z" fill="white"/>
<path d="M1508.11 406.106C1512.82 406.788 1517.47 407.656 1522.18 408.772C1510.4 442.932 1501.47 459.484 1496.51 458.369C1490.62 457.191 1482.69 455.579 1476.74 454.649C1485.36 455.889 1496.51 439.77 1508.11 406.106Z" fill="white"/>
<path d="M1508.11 406.106C1512.82 406.788 1517.47 407.656 1522.18 408.772C1510.4 442.932 1501.47 459.485 1496.51 458.369C1490.62 457.191 1482.69 455.579 1476.74 454.649C1485.36 455.889 1496.51 439.77 1508.11 406.106ZM1507.67 406.044C1496.08 439.708 1484.86 455.765 1476.12 454.525L1476.74 454.649C1482.88 455.703 1491.06 457.191 1497.13 458.555C1501.91 459.609 1510.84 443.118 1522.55 408.896C1517.65 407.718 1512.63 406.788 1507.67 406.044Z" fill="white"/>
<path d="M1484.05 404.37C1488.64 404.37 1493.35 404.556 1498 404.928C1486.66 437.972 1474.13 453.905 1462.97 453.037L1451.94 452.355L1444.87 452.231C1458.94 452.107 1473.08 436.236 1484.05 404.37Z" fill="white"/>
<path d="M1484.05 404.371C1488.64 404.371 1493.35 404.557 1498 404.928C1486.66 437.972 1474.13 453.905 1462.97 453.037L1451.94 452.355L1444.87 452.231C1458.94 452.107 1473.08 436.236 1484.05 404.371ZM1483.56 404.371C1472.58 436.236 1458.45 452.107 1444.25 452.293L1451.88 452.417L1463.53 453.099C1474.57 453.967 1487.03 438.034 1498.37 404.99C1493.48 404.556 1488.52 404.309 1483.56 404.371Z" fill="white"/>
<path d="M1460.74 406.354C1465.14 405.61 1469.61 405.052 1474.13 404.742C1463.53 435.616 1448.59 451.549 1432.72 452.727L1429.62 452.975C1426.09 453.409 1421.44 453.905 1417.97 454.525C1435.45 451.363 1450.76 435.368 1460.74 406.354Z" fill="white"/>
<path d="M1460.74 406.354C1465.14 405.61 1469.61 405.052 1474.13 404.742C1463.53 435.616 1448.59 451.549 1432.72 452.727L1429.62 452.975C1426.09 453.409 1421.44 453.905 1417.97 454.525C1435.45 451.363 1450.76 435.368 1460.74 406.354ZM1460.31 406.478C1452.19 427.557 1442.21 448.635 1417.53 454.587C1421.19 454.091 1426.03 453.347 1429.62 452.975L1433.22 452.665C1449.03 451.549 1463.9 435.616 1474.57 404.68C1469.73 405.052 1464.96 405.61 1460.31 406.478Z" fill="white"/>
<path d="M1439.04 412.368C1443.07 410.818 1447.17 409.516 1451.44 408.4C1442.02 435.802 1426.83 451.797 1408.85 456.447C1405.81 457.315 1401.78 458.555 1398.81 459.609C1416.29 452.789 1430.55 437.042 1439.04 412.368Z" fill="white"/>
<path d="M1439.04 412.368C1443.07 410.818 1447.17 409.516 1451.44 408.4C1442.02 435.802 1426.83 451.797 1408.85 456.447C1405.81 457.315 1401.79 458.554 1398.81 459.608C1416.29 452.789 1430.55 437.042 1439.04 412.368ZM1438.67 412.492C1430.24 437.104 1415.98 452.851 1398.5 459.732C1401.66 458.616 1406 457.253 1409.22 456.323C1427.2 451.735 1442.45 435.74 1451.88 408.276C1447.29 409.392 1442.89 410.818 1438.67 412.492Z" fill="white"/>
<path d="M1420.51 421.977C1423.67 419.807 1427.08 417.824 1430.74 415.964C1423.05 438.22 1410.09 453.533 1393.85 461.716C1392.86 462.274 1391.49 462.956 1390.56 463.514L1389.94 463.886C1403.46 454.649 1414.12 440.576 1420.51 421.977Z" fill="white"/>
<path d="M1420.51 421.977C1423.67 419.807 1427.08 417.823 1430.74 415.964C1423.05 438.22 1410.09 453.533 1393.85 461.716C1392.86 462.274 1391.49 462.956 1390.56 463.514L1389.94 463.886C1403.46 454.649 1414.12 440.576 1420.51 421.977ZM1420.2 422.225C1413.81 440.7 1403.33 454.649 1389.88 464.01L1390.56 463.576C1391.62 463.018 1392.98 462.212 1394.04 461.654C1410.34 453.533 1423.36 438.22 1431.05 415.84C1427.2 417.761 1423.55 419.869 1420.2 422.225Z" fill="white"/>
<path d="M1406.5 434.5C1408.79 431.834 1411.33 429.293 1414.12 426.937C1408.73 442.56 1400.17 455.145 1389.2 464.506L1389.14 464.568C1389.45 464.258 1389.82 463.824 1390.13 463.514C1397.07 455.269 1402.65 445.597 1406.5 434.5Z" fill="white"/>
<path d="M1406.5 434.5C1408.79 431.834 1411.33 429.293 1414.12 426.937C1408.73 442.56 1400.17 455.145 1389.2 464.506L1389.14 464.568C1389.45 464.258 1389.82 463.824 1390.13 463.514C1397.07 455.269 1402.65 445.598 1406.5 434.5ZM1406.25 434.748C1401.41 446.589 1399 452.541 1390.13 463.452C1389.82 463.824 1389.39 464.258 1389.08 464.568L1389.2 464.506C1400.3 455.083 1408.91 442.436 1414.37 426.689C1411.33 429.169 1408.67 431.896 1406.25 434.748Z" fill="white"/>
<path d="M1397.07 449.255C1398.44 446.218 1400.05 443.242 1401.97 440.452C1399.31 448.139 1395.77 455.207 1391.49 461.654C1392.98 459.175 1393.11 458.989 1393.91 457.191C1395.09 454.587 1396.14 451.921 1397.07 449.255Z" fill="white"/>
<path d="M1397.07 449.255C1398.44 446.217 1400.05 443.242 1401.97 440.452C1399.31 448.139 1395.77 455.207 1391.49 461.654C1392.98 459.174 1393.11 458.988 1393.91 457.191C1395.09 454.587 1396.14 451.921 1397.07 449.255ZM1396.95 449.503C1396.08 452.045 1395.09 454.525 1394.04 456.943C1392.61 459.918 1392.55 460.042 1391.43 461.654C1395.83 455.145 1399.49 447.953 1402.16 440.08C1400.11 443.118 1398.38 446.279 1396.95 449.503Z" fill="white"/>
<path d="M1599.86 509.701C1603.33 512.987 1607.86 517.388 1611.14 520.798C1618.09 527.246 1639.23 546.774 1699.74 522.782C1692.17 514.475 1684.11 506.539 1675.62 498.976C1639.97 519.186 1613.38 521.852 1599.86 509.701Z" fill="white"/>
<path d="M1599.86 509.701C1603.33 512.987 1607.86 517.388 1611.14 520.798C1618.09 527.246 1639.23 546.774 1699.74 522.782C1692.17 514.475 1684.11 506.539 1675.62 498.976C1639.97 519.186 1613.38 521.852 1599.86 509.701ZM1599.43 509.329C1612.88 521.356 1639.35 518.566 1674.75 498.232C1683.68 506.167 1692.17 514.475 1700.11 523.216C1658.26 540.079 1626.77 537.971 1611.33 520.984C1607.8 517.388 1603.08 512.739 1599.43 509.329Z" fill="white"/>
<path d="M1574.94 490.978L1576.67 492.094C1580.77 494.946 1586.22 498.728 1590.19 501.703C1602.03 511.003 1625.22 505.485 1656.59 483.229C1647.54 476.223 1638.11 469.59 1628.32 463.328C1617.59 473.31 1589.01 499.844 1574.94 490.978Z" fill="white"/>
<path d="M1574.94 490.978L1576.67 492.094C1580.77 494.946 1586.22 498.728 1590.19 501.703C1602.03 511.003 1625.22 505.485 1656.59 483.229C1647.54 476.223 1638.11 469.59 1628.32 463.328C1617.59 473.31 1589.01 499.844 1574.94 490.978ZM1574.38 490.606C1583.43 496.434 1601.84 487.568 1627.32 462.646C1637.74 469.28 1647.78 476.347 1657.39 483.849C1625.9 506.043 1602.53 511.437 1590.62 502.013C1586.47 498.976 1580.89 494.884 1576.61 492.032L1574.38 490.606Z" fill="white"/>
<path d="M1544.5 474.549L1553.98 479.075L1562.73 483.725C1569.73 487.693 1584.98 476.967 1606.8 450.495C1596.64 444.854 1586.16 439.584 1575.56 434.81C1558.94 463.328 1548.34 476.347 1544.5 474.549Z" fill="white"/>
<path d="M1544.5 474.549L1553.98 479.075L1562.73 483.725C1569.73 487.692 1584.98 476.967 1606.8 450.495C1596.64 444.853 1586.16 439.584 1575.56 434.81C1558.94 463.328 1548.34 476.347 1544.5 474.549ZM1543.88 474.301C1547.66 476.037 1558.08 462.956 1574.5 434.314C1585.85 439.398 1596.95 444.977 1607.8 450.991C1585.79 477.401 1570.41 488.064 1563.28 483.973L1553.98 479.013L1543.88 474.301Z" fill="white"/>
<path d="M1510.9 462.151C1516.35 463.886 1523.61 466.242 1528.94 468.164L1530.61 468.784C1532.35 467.978 1536.19 462.088 1552.12 425.015C1541.21 420.861 1530.12 417.08 1518.96 413.794C1511.39 445.536 1508.91 461.593 1510.9 462.151Z" fill="white"/>
<path d="M1510.9 462.15C1516.35 463.886 1523.61 466.242 1528.94 468.164L1530.61 468.784C1532.35 467.978 1536.19 462.088 1552.12 425.015C1541.21 420.861 1530.12 417.079 1518.96 413.794C1511.39 445.535 1508.91 461.592 1510.9 462.15ZM1510.28 461.964C1508.11 461.406 1510.46 445.287 1517.9 413.546C1529.81 417.017 1541.65 420.985 1553.24 425.449C1540.28 455.269 1532.91 469.652 1531.29 469.032L1529 468.164C1523.42 466.242 1515.98 463.576 1510.28 461.964Z" fill="white"/>
<path d="M1476.74 454.649C1482.69 455.703 1490.62 457.129 1496.51 458.369C1491.86 457.315 1490.87 440.39 1494.65 407.47C1483.37 404.866 1471.96 402.697 1460.62 401.023C1462.23 435.43 1468.24 453.409 1476.74 454.649Z" fill="white"/>
<path d="M1476.74 454.649C1482.69 455.703 1490.62 457.129 1496.51 458.369C1491.86 457.315 1490.87 440.39 1494.65 407.47C1483.37 404.866 1471.96 402.697 1460.62 401.023C1462.23 435.43 1468.24 453.409 1476.74 454.649ZM1476.12 454.525C1467.5 453.285 1461.3 435.368 1459.5 400.899C1471.59 402.635 1483.68 404.928 1495.71 407.718C1491.74 440.514 1492.61 457.501 1497.13 458.493C1491 457.253 1482.88 455.579 1476.74 454.587L1476.12 454.525Z" fill="white"/>
<path d="M1444.81 452.293L1451.88 452.417L1462.91 453.099C1451.57 452.231 1441.71 433.818 1436.01 398.295C1424.66 397.365 1413.38 396.869 1402.22 396.931C1413.87 433.818 1429.37 452.417 1444.81 452.293Z" fill="white"/>
<path d="M1444.81 452.293L1451.88 452.417L1462.91 453.099C1451.57 452.231 1441.71 433.818 1436.01 398.295C1424.66 397.365 1413.38 396.869 1402.22 396.931C1413.87 433.818 1429.37 452.417 1444.81 452.293ZM1444.25 452.293C1428.69 452.479 1413.01 433.88 1401.23 396.869C1413.13 396.807 1425.1 397.303 1437.18 398.357C1442.7 433.88 1452.37 452.231 1463.59 453.099L1451.94 452.417L1444.25 452.293Z" fill="white"/>
<path d="M1417.97 454.463C1421.44 453.967 1426.15 453.285 1429.62 452.913L1432.72 452.665C1414.25 454.029 1394.47 435.616 1378.35 397.675C1367.38 398.481 1356.53 399.783 1345.93 401.643C1368.8 440.886 1395.21 458.617 1417.97 454.463Z" fill="white"/>
<path d="M1417.97 454.463C1421.44 453.967 1426.15 453.285 1429.62 452.913L1432.72 452.665C1414.25 454.029 1394.47 435.616 1378.35 397.675C1367.38 398.481 1356.53 399.783 1345.93 401.643C1368.8 440.886 1395.21 458.617 1417.97 454.463ZM1417.53 454.587C1406.93 455.641 1378.91 458.369 1344.94 401.891C1356.22 399.907 1367.75 398.481 1379.47 397.675C1395.34 435.554 1414.99 454.029 1433.28 452.665L1429.68 452.975C1426.03 453.409 1421.13 454.091 1417.53 454.587Z" fill="white"/>
<path d="M1398.75 459.609C1401.72 458.555 1405.75 457.315 1408.79 456.447C1383 463.142 1351.51 446.465 1323.3 406.602C1313.01 409.268 1303.03 412.43 1293.35 416.212C1329.62 456.881 1368.93 471.202 1398.75 459.609Z" fill="white"/>
<path d="M1398.75 459.609C1401.72 458.555 1405.75 457.315 1408.79 456.447C1383 463.142 1351.51 446.466 1323.3 406.602C1313.01 409.268 1303.03 412.43 1293.35 416.212C1329.62 456.881 1368.93 471.202 1398.75 459.609ZM1398.44 459.733C1368.49 471.512 1328.94 457.253 1292.42 416.522C1302.72 412.492 1313.38 409.082 1324.35 406.292C1352.25 446.156 1383.5 462.894 1409.16 456.323C1405.94 457.253 1401.6 458.555 1398.44 459.733Z" fill="white"/>
<path d="M1389.94 463.948L1390.56 463.576C1391.56 463.018 1392.86 462.274 1393.85 461.778C1361.43 478.145 1315.92 466.18 1273.27 425.077C1264.4 429.479 1256.16 434.314 1248.47 439.584C1300.42 480.625 1354.98 488.002 1389.94 463.948Z" fill="white"/>
<path d="M1389.94 463.948L1390.56 463.576C1391.56 463.018 1392.86 462.274 1393.85 461.778C1361.43 478.145 1315.92 466.18 1273.27 425.077C1264.4 429.479 1256.16 434.314 1248.47 439.584C1300.42 480.625 1354.98 488.003 1389.94 463.948ZM1389.88 463.948C1354.85 488.313 1299.99 481.121 1247.73 440.018C1255.85 434.438 1264.65 429.231 1274.14 424.581C1316.48 465.684 1361.74 477.773 1394.04 461.654C1392.98 462.212 1391.56 462.956 1390.56 463.576L1389.88 463.948Z" fill="white"/>
<path d="M1390.07 463.514C1389.76 463.824 1389.39 464.258 1389.08 464.568L1389.14 464.506C1353.3 495.256 1291.93 492.156 1232.91 451.425C1226.15 457.191 1220.01 463.328 1214.5 469.776C1283.75 509.081 1354.98 504.679 1390.07 463.514Z" fill="white"/>
<path d="M1390.07 463.514C1389.76 463.824 1389.39 464.258 1389.08 464.568L1389.14 464.506C1353.3 495.256 1291.93 492.156 1232.91 451.425C1226.15 457.191 1220.01 463.328 1214.5 469.776C1283.75 509.081 1354.98 504.679 1390.07 463.514ZM1390.13 463.39C1349.65 506.229 1285.48 508.771 1214 470.334C1219.83 463.452 1226.34 456.943 1233.59 450.805C1292.3 491.536 1353.37 494.884 1389.2 464.444L1389.08 464.506C1389.39 464.196 1389.82 463.762 1390.13 463.39Z" fill="white"/>
<path d="M1393.91 457.129C1392.42 460.105 1392.42 460.105 1391.49 461.592C1358.57 510.817 1280.21 521.79 1203.65 484.097C1199.06 490.978 1195.09 498.108 1191.74 505.485C1278.54 539.645 1366.63 517.884 1393.91 457.129Z" fill="white"/>
<path d="M1393.91 457.129C1392.42 460.104 1392.42 460.104 1391.49 461.592C1358.57 510.817 1280.21 521.79 1203.65 484.097C1199.06 490.978 1195.09 498.108 1191.74 505.485C1278.54 539.645 1366.63 517.884 1393.91 457.129ZM1394.04 457.005C1367.01 518.132 1278.54 540.265 1191.5 506.167C1194.97 498.294 1199.18 490.73 1204.14 483.415C1280.4 521.17 1358.39 510.507 1391.49 461.716C1392.86 459.36 1393.11 458.988 1394.04 457.005Z" fill="white"/>
<path d="M1628.5 538.653C1628.81 537.599 1629.18 536.111 1629.49 535.057C1606.56 601.764 1662.54 681.552 1754.54 713.232C1756.28 708.211 1757.7 703.065 1758.88 697.857C1670.1 672.439 1614.12 602.756 1628.5 538.653Z" fill="white"/>
<path d="M1628.5 538.653C1628.81 537.599 1629.18 536.111 1629.49 535.057C1606.56 601.764 1662.54 681.552 1754.54 713.232C1756.28 708.211 1757.7 703.065 1758.88 697.857C1670.1 672.439 1614.12 602.756 1628.5 538.653ZM1628.44 538.839C1614.43 602.818 1670.41 672.005 1759.07 697.113C1757.89 702.569 1756.34 707.963 1754.54 713.232C1662.54 681.552 1606.56 601.764 1629.49 535.057C1629.18 536.173 1628.75 537.661 1628.44 538.839Z" fill="white"/>
<path d="M1627.82 545.534C1627.82 543.674 1627.82 543.488 1627.94 542.186C1621.87 602.322 1677.11 661.59 1761.73 680.499C1762.54 672.377 1762.72 664.132 1762.23 655.762C1638.48 634.932 1628.56 560.289 1627.82 545.534Z" fill="white"/>
<path d="M1627.82 545.534C1627.82 543.675 1627.82 543.489 1627.94 542.187C1621.87 602.322 1677.11 661.59 1761.73 680.499C1762.54 672.377 1762.72 664.132 1762.23 655.763C1638.48 634.932 1628.56 560.289 1627.82 545.534ZM1627.82 545.658C1637.74 627.617 1725.03 649.439 1762.17 655.019C1762.72 663.946 1762.54 672.749 1761.67 681.367C1674.69 658.924 1624.66 606.91 1628.01 542.125C1627.76 544.17 1627.76 544.728 1627.82 545.658Z" fill="white"/>
<path d="M1627.57 545.534L1627.7 546.03L1627.82 546.526C1643.82 616.519 1717.53 633.63 1760 637.66C1758.51 629.166 1756.4 620.549 1753.61 611.994C1687.83 612.676 1640.53 585.584 1627.57 545.534Z" fill="white"/>
<path d="M1627.57 545.534L1627.7 546.03L1627.82 546.526C1643.82 616.519 1717.53 633.63 1760 637.66C1758.51 629.166 1756.4 620.549 1753.61 611.994C1687.83 612.675 1640.53 585.583 1627.57 545.534ZM1627.57 545.41C1640.65 585.211 1687.83 612.056 1753.42 611.064C1756.46 620.239 1758.69 629.352 1760.24 638.404C1686.9 632.576 1635.82 594.635 1627.94 546.464L1627.82 546.03L1627.57 545.41Z" fill="white"/>
<path d="M1623.3 536.793L1625.47 540.699L1626.46 542.807C1645.49 580.128 1685.91 597.053 1746.48 593.209C1742.7 584.592 1738.24 575.912 1733.09 567.357C1679.53 577.152 1639.66 564.319 1623.3 536.793Z" fill="white"/>
<path d="M1623.3 536.793L1625.47 540.699L1626.46 542.807C1645.49 580.128 1685.91 597.053 1746.48 593.209C1742.7 584.592 1738.24 575.912 1733.09 567.357C1679.53 577.152 1639.66 564.319 1623.3 536.793ZM1623.17 536.545C1630.67 547.27 1653.36 579.942 1732.66 566.551C1738.17 575.726 1742.95 584.902 1746.91 594.077C1684.55 597.053 1644.06 579.88 1626.58 542.931L1625.53 540.699C1624.78 539.459 1623.92 537.723 1623.17 536.545Z" fill="white"/>
<path d="M1611.45 521.108C1613.87 523.96 1617.03 527.741 1619.33 530.717L1619.58 531.027C1636 553.842 1672.4 561.777 1721 548.82C1714.86 540.327 1707.98 531.895 1700.48 523.526C1658.45 540.389 1626.89 538.157 1611.45 521.108Z" fill="white"/>
<path d="M1611.45 521.108C1613.87 523.96 1617.03 527.742 1619.33 530.718L1619.58 531.028C1636 553.842 1672.4 561.777 1721 548.82C1714.86 540.327 1707.98 531.895 1700.48 523.526C1658.45 540.389 1626.89 538.157 1611.45 521.108ZM1611.27 520.984C1626.71 537.971 1658.2 540.017 1700.05 523.216C1707.98 531.957 1715.11 540.761 1721.56 549.688C1671.09 561.405 1636.81 555.206 1619.7 531.337L1619.27 530.78C1616.97 527.742 1613.75 523.836 1611.27 520.984Z" fill="white"/>
<path d="M1631.35 528.672C1630.86 530.841 1630.3 532.949 1629.56 534.995C1629.25 536.049 1628.81 537.475 1628.56 538.591C1629.25 535.305 1630.18 532.019 1631.35 528.672Z" fill="white"/>
<path d="M1631.35 528.672C1630.86 530.841 1630.3 532.949 1629.56 534.995C1629.25 536.049 1628.81 537.475 1628.56 538.591C1629.25 535.305 1630.18 532.019 1631.35 528.672ZM1631.42 528.362C1630.24 531.833 1629.25 535.305 1628.5 538.777C1628.81 537.661 1629.18 536.111 1629.56 534.995C1630.3 532.887 1630.92 530.655 1631.42 528.362Z" fill="white"/>
<path d="M1632.66 511.313C1632.84 514.785 1632.78 518.194 1632.47 521.542C1630.11 528.424 1628.63 535.305 1627.88 542.187C1627.7 544.48 1627.7 544.481 1627.76 545.534C1627.82 531.647 1628.01 526.068 1632.66 511.313Z" fill="white"/>
<path d="M1632.66 511.313C1632.84 514.785 1632.78 518.194 1632.47 521.542C1630.11 528.424 1628.63 535.305 1627.88 542.187C1627.7 544.481 1627.7 544.481 1627.76 545.534C1627.82 531.647 1628.01 526.068 1632.66 511.313ZM1632.66 511.003C1628.87 524.394 1627.26 529.912 1627.82 545.658C1627.82 543.861 1627.76 543.613 1627.94 542.125C1630.11 528.858 1630.18 528.61 1632.47 521.914C1632.84 518.318 1632.9 514.661 1632.66 511.003Z" fill="white"/>
<path d="M1629.18 493.21C1630.36 496.744 1631.23 500.34 1631.85 503.812C1628.13 516.893 1625.16 527.246 1627.94 546.465L1627.82 545.969L1627.7 545.473C1622.49 529.788 1622.68 511.995 1629.18 493.21Z" fill="white"/>
<path d="M1629.18 493.21C1630.36 496.744 1631.23 500.34 1631.85 503.812C1628.13 516.893 1625.16 527.246 1627.95 546.465L1627.82 545.969L1627.7 545.473C1622.49 529.788 1622.68 511.995 1629.18 493.21ZM1629.06 492.838C1622.55 511.809 1622.37 529.602 1627.57 545.411L1627.76 545.969C1627.82 546.093 1627.82 546.341 1627.88 546.403C1625.65 532.95 1626.83 518.691 1631.85 504.122C1631.23 500.402 1630.3 496.62 1629.06 492.838Z" fill="white"/>
<path d="M1620.69 474.797C1622.8 478.331 1624.66 481.927 1626.21 485.461C1621.93 500.092 1616.66 518.318 1626.52 542.745L1625.53 540.637L1623.36 536.731C1613.75 520.612 1612.2 499.41 1620.69 474.797Z" fill="white"/>
<path d="M1620.69 474.798C1622.8 478.331 1624.66 481.927 1626.21 485.461C1621.93 500.092 1616.66 518.318 1626.52 542.745L1625.53 540.637L1623.36 536.731C1613.75 520.612 1612.2 499.41 1620.69 474.798ZM1620.51 474.426C1613.69 497.612 1611.7 516.025 1623.17 536.483C1623.85 537.723 1624.85 539.397 1625.53 540.637L1626.58 542.869C1622.43 531.276 1616.79 515.343 1626.4 485.771C1624.72 482.051 1622.8 478.207 1620.51 474.426Z" fill="white"/>
<path d="M1607.18 456.695C1610.28 460.105 1613.13 463.638 1615.67 467.11C1606.49 493.83 1608.54 515.777 1619.51 531.028L1619.27 530.718C1616.97 527.804 1613.87 523.898 1611.39 521.108C1599.43 507.965 1597.13 485.833 1607.18 456.695Z" fill="white"/>
<path d="M1607.18 456.695C1610.28 460.105 1613.13 463.638 1615.67 467.11C1606.49 493.83 1608.54 515.777 1619.51 531.027L1619.27 530.718C1616.97 527.804 1613.87 523.898 1611.39 521.108C1599.43 507.965 1597.13 485.833 1607.18 456.695ZM1606.99 456.571C1596.95 485.709 1599.24 507.841 1611.27 520.984C1613.75 523.898 1616.97 527.742 1619.27 530.78L1619.7 531.337C1608.23 512.491 1607.24 496.372 1615.86 467.482C1613.25 463.824 1610.28 460.167 1606.99 456.571Z" fill="white"/>
<path d="M1693.54 307.286C1699.55 312.679 1705.25 318.259 1710.65 324.148C1663.03 361.346 1622.37 411.5 1606.87 456.385C1603.7 452.975 1600.42 449.689 1596.89 446.528C1612.32 401.643 1650.2 348.637 1693.54 307.286Z" fill="white"/>
<path d="M1693.54 307.285C1699.55 312.679 1705.25 318.259 1710.65 324.148C1663.03 361.346 1622.37 411.5 1606.87 456.385C1603.7 452.975 1600.42 449.689 1596.89 446.527C1612.32 401.643 1650.2 348.636 1693.54 307.285ZM1693.6 306.107C1650.14 347.706 1612.07 401.147 1596.58 446.217C1600.23 449.503 1603.77 452.913 1607.05 456.509C1622.55 411.376 1663.65 360.974 1711.64 323.838C1705.94 317.639 1699.92 311.749 1693.6 306.107Z" fill="white"/>
<path d="M1660.06 281.991C1666.94 286.393 1673.64 291.105 1680.08 296.064C1640.1 340.267 1604.51 395.133 1589.07 440.018C1585.35 437.104 1581.45 434.376 1577.42 431.773C1592.86 386.95 1625.09 329.666 1660.06 281.991Z" fill="white"/>
<path d="M1660.06 281.991C1666.94 286.393 1673.64 291.105 1680.08 296.064C1640.1 340.267 1604.51 395.133 1589.07 440.018C1585.35 437.104 1581.45 434.376 1577.42 431.773C1592.86 386.95 1625.09 329.666 1660.06 281.991ZM1659.87 280.813C1624.85 328.736 1592.48 386.454 1576.98 431.525C1581.26 434.252 1585.42 437.166 1589.38 440.266C1604.88 395.133 1640.9 340.019 1681.26 295.878C1674.44 290.547 1667.31 285.525 1659.87 280.813Z" fill="white"/>
<path d="M1622.61 261.781C1630.18 265.19 1637.55 268.91 1644.75 272.878C1613.56 322.846 1583.87 381.618 1568.43 426.503C1564.21 424.147 1559.94 422.039 1555.53 419.993C1571.03 375.17 1596.95 314.477 1622.61 261.781Z" fill="white"/>
<path d="M1622.61 261.781C1630.18 265.19 1637.55 268.91 1644.75 272.878C1613.56 322.846 1583.87 381.618 1568.43 426.503C1564.21 424.147 1559.94 422.039 1555.53 419.993C1571.03 375.171 1596.95 314.477 1622.61 261.781ZM1622.3 260.665C1596.7 313.609 1570.66 374.737 1555.16 419.869C1559.87 421.977 1564.46 424.271 1568.93 426.751C1584.42 381.618 1614.43 322.536 1645.99 272.506C1638.24 268.228 1630.36 264.261 1622.3 260.665Z" fill="white"/>
<path d="M1582.56 246.964C1590.5 249.319 1598.37 251.923 1606.06 254.899C1584.49 309.331 1561.36 371.141 1545.92 416.026C1541.4 414.29 1536.81 412.74 1532.22 411.376C1547.66 366.491 1566.88 303.38 1582.56 246.964Z" fill="white"/>
<path d="M1582.56 246.964C1590.5 249.32 1598.37 251.923 1606.06 254.899C1584.49 309.331 1561.36 371.141 1545.92 416.026C1541.4 414.29 1536.81 412.74 1532.22 411.376C1547.66 366.491 1566.88 303.38 1582.56 246.964ZM1582.01 245.848C1566.45 302.512 1547.29 366.119 1531.73 411.252C1536.63 412.678 1541.52 414.352 1546.3 416.15C1561.8 371.017 1585.29 308.897 1607.11 254.341C1598.93 251.18 1590.5 248.328 1582.01 245.848Z" fill="white"/>
<path d="M1541.21 237.851C1549.27 239.028 1557.33 240.578 1565.33 242.376C1553.92 299.97 1537.62 363.888 1522.18 408.772C1517.53 407.718 1512.82 406.788 1508.11 406.107C1523.54 361.222 1535.82 296.56 1541.21 237.851Z" fill="white"/>
<path d="M1541.21 237.85C1549.27 239.028 1557.33 240.578 1565.33 242.376C1553.92 299.97 1537.62 363.887 1522.18 408.772C1517.53 407.718 1512.82 406.788 1508.11 406.106C1523.54 361.222 1535.82 296.56 1541.21 237.85ZM1540.53 236.859C1535.39 295.816 1523.23 360.912 1507.67 406.044C1512.7 406.788 1517.65 407.718 1522.61 408.896C1538.11 363.763 1554.67 299.474 1566.26 241.756C1557.7 239.772 1549.09 238.098 1540.53 236.859Z" fill="white"/>
<path d="M1499.86 234.875C1507.8 234.813 1515.79 235.185 1523.79 235.866C1522.74 295.072 1513.38 360.044 1497.94 404.928C1493.29 404.557 1488.58 404.371 1483.99 404.371C1499.49 359.486 1504.82 294.328 1499.86 234.875Z" fill="white"/>
<path d="M1499.86 234.875C1507.8 234.813 1515.8 235.185 1523.79 235.867C1522.74 295.072 1513.38 360.044 1497.94 404.928C1493.29 404.557 1488.58 404.371 1483.99 404.371C1499.49 359.486 1504.82 294.328 1499.86 234.875ZM1499.06 234.007C1504.33 293.646 1499.12 359.238 1483.62 404.371C1488.52 404.309 1493.48 404.557 1498.44 404.99C1513.94 359.858 1523.48 294.452 1524.6 235.061C1516.04 234.317 1507.49 233.945 1499.06 234.007Z" fill="white"/>
<path d="M1459.94 238.346C1467.44 237.044 1475.13 236.114 1482.94 235.557C1492.11 294.824 1489.63 359.858 1474.13 404.742C1469.61 405.052 1465.14 405.61 1460.74 406.354C1476.18 361.47 1474.82 296.87 1459.94 238.346Z" fill="white"/>
<path d="M1459.94 238.346C1467.44 237.044 1475.13 236.114 1482.94 235.557C1492.11 294.824 1489.63 359.858 1474.13 404.743C1469.61 405.052 1465.14 405.61 1460.74 406.354C1476.18 361.47 1474.82 296.87 1459.94 238.346ZM1459.01 237.602C1474.26 296.374 1475.87 361.346 1460.37 406.478C1465.02 405.672 1469.79 405.052 1474.63 404.743C1490.13 359.61 1492.73 294.142 1483.56 234.627C1475.19 235.185 1467 236.176 1459.01 237.602Z" fill="white"/>
<path d="M1422.68 248.576C1429.56 245.91 1436.63 243.678 1443.94 241.756C1462.79 299.474 1466.88 363.453 1451.44 408.338C1447.23 409.454 1443.07 410.756 1439.04 412.306C1454.48 367.483 1446.86 304.558 1422.68 248.576Z" fill="white"/>
<path d="M1422.68 248.576C1429.56 245.91 1436.63 243.678 1443.94 241.756C1462.79 299.474 1466.88 363.454 1451.44 408.338C1447.23 409.454 1443.07 410.756 1439.04 412.306C1454.48 367.483 1446.86 304.558 1422.68 248.576ZM1421.69 247.956C1446.3 304.124 1454.17 367.359 1438.67 412.43C1442.95 410.756 1447.35 409.33 1451.88 408.214C1467.38 363.082 1463.35 298.668 1444.44 240.64C1436.56 242.686 1429 245.104 1421.69 247.956Z" fill="white"/>
<path d="M1390.87 265.128C1396.27 261.409 1402.16 257.999 1408.42 254.837C1436.13 309.269 1446.17 371.079 1430.67 415.964C1427.02 417.762 1423.61 419.807 1420.45 421.977C1435.94 377.092 1422.99 317.019 1390.87 265.128Z" fill="white"/>
<path d="M1390.87 265.129C1396.27 261.409 1402.16 257.999 1408.42 254.837C1436.13 309.269 1446.17 371.079 1430.68 415.964C1427.02 417.762 1423.61 419.808 1420.45 421.977C1435.94 377.093 1422.99 317.019 1390.87 265.129ZM1389.88 264.695C1422.43 316.647 1435.7 377.093 1420.2 422.163C1423.55 419.87 1427.2 417.7 1431.11 415.778C1446.61 370.645 1436.5 308.402 1408.67 253.659C1401.91 257.069 1395.65 260.727 1389.88 264.695Z" fill="white"/>
<path d="M1366.82 286.517C1370.73 281.929 1375.06 277.589 1379.84 273.56C1414.68 323.342 1429.5 382.052 1414.06 426.937C1411.27 429.293 1408.73 431.834 1406.43 434.5C1421.93 389.553 1404.88 333.075 1366.82 286.517Z" fill="white"/>
<path d="M1366.82 286.517C1370.73 281.929 1375.06 277.59 1379.84 273.56C1414.68 323.342 1429.5 382.052 1414.06 426.937C1411.27 429.293 1408.73 431.835 1406.43 434.5C1421.93 389.554 1404.88 333.076 1366.82 286.517ZM1365.89 286.269C1404.45 332.828 1421.81 389.616 1406.25 434.748C1408.67 431.897 1411.33 429.231 1414.31 426.689C1429.81 381.556 1414.87 322.474 1379.78 272.444C1374.63 276.784 1370.04 281.371 1365.89 286.269Z" fill="white"/>
<path d="M1350.7 311.873C1353.06 306.666 1355.85 301.582 1359.13 296.746C1399.12 340.763 1417.47 395.567 1402.03 440.452C1400.11 443.304 1398.5 446.218 1397.14 449.255C1412.51 404.371 1392.8 352.108 1350.7 311.873Z" fill="white"/>
<path d="M1350.7 311.873C1353.06 306.666 1355.85 301.582 1359.13 296.746C1399.12 340.763 1417.47 395.567 1402.03 440.452C1400.11 443.304 1398.5 446.218 1397.14 449.255C1412.51 404.371 1392.8 352.108 1350.7 311.873ZM1349.83 311.749C1392.42 351.922 1412.45 404.433 1396.95 449.503C1398.38 446.28 1400.11 443.118 1402.16 440.08C1417.66 394.947 1399.18 339.771 1358.82 295.506C1355.29 300.776 1352.31 306.17 1349.83 311.749Z" fill="white"/>
<path d="M1752.56 448.202C1751.75 451.921 1750.7 455.517 1749.46 459.113C1692.17 462.646 1644.93 490.173 1629.49 535.057C1630.24 532.949 1630.8 530.842 1631.29 528.734C1646.79 483.787 1694.53 454.463 1752.56 448.202Z" fill="white"/>
<path d="M1752.56 448.201C1751.75 451.921 1750.7 455.517 1749.46 459.113C1692.17 462.646 1644.93 490.172 1629.49 535.057C1630.24 532.949 1630.8 530.842 1631.29 528.734C1646.79 483.787 1694.53 454.463 1752.56 448.201ZM1753.55 447.582C1695.09 453.781 1646.92 483.291 1631.35 528.424C1630.86 530.656 1630.24 532.887 1629.49 535.119C1644.99 489.987 1692.67 462.46 1750.32 459.113C1751.63 455.269 1752.74 451.425 1753.55 447.582Z" fill="white"/>
<path d="M1754.91 418.382C1755.28 424.333 1755.16 430.161 1754.54 435.926C1696.02 445.226 1647.91 476.657 1632.47 521.542C1632.78 518.194 1632.9 514.785 1632.66 511.313C1654.6 454.401 1711.27 429.417 1754.91 418.382Z" fill="white"/>
<path d="M1754.91 418.381C1755.28 424.333 1755.16 430.161 1754.54 435.926C1696.02 445.225 1647.91 476.657 1632.47 521.542C1632.78 518.194 1632.9 514.785 1632.66 511.313C1654.6 454.401 1711.27 429.417 1754.91 418.381ZM1755.78 417.637C1696.76 431.338 1648.16 465.87 1632.66 511.003C1632.9 514.661 1632.84 518.318 1632.47 521.914C1647.97 476.781 1696.51 445.411 1755.41 436.422C1756.03 430.223 1756.15 423.961 1755.78 417.637Z" fill="white"/>
<path d="M1748.9 387.26C1750.88 393.335 1752.37 399.473 1753.42 405.486C1690.93 424.829 1648.9 458.865 1631.85 503.811C1631.23 500.278 1630.36 496.744 1629.18 493.21C1644.62 448.325 1691.74 408.71 1748.9 387.26Z" fill="white"/>
<path d="M1748.9 387.26C1750.88 393.335 1752.37 399.473 1753.42 405.486C1690.93 424.829 1648.9 458.865 1631.85 503.811C1631.23 500.278 1630.36 496.744 1629.18 493.21C1644.62 448.325 1691.74 408.71 1748.9 387.26ZM1749.52 386.33C1692.05 407.842 1644.56 447.705 1629 492.838C1630.24 496.62 1631.17 500.402 1631.79 504.121C1647.29 458.989 1695.64 422.473 1754.29 405.796C1753.3 399.349 1751.69 392.901 1749.52 386.33Z" fill="white"/>
<path d="M1734.33 355.704C1737.99 361.78 1741.15 367.917 1743.81 374.055C1683.87 401.767 1643.2 440.266 1626.21 485.461C1624.66 481.865 1622.8 478.331 1620.69 474.798C1636.13 429.913 1680.83 385.028 1734.33 355.704Z" fill="white"/>
<path d="M1734.33 355.704C1737.99 361.779 1741.15 367.917 1743.81 374.055C1683.87 401.767 1643.2 440.266 1626.21 485.461C1624.66 481.865 1622.8 478.331 1620.69 474.797C1636.13 429.913 1680.83 385.028 1734.33 355.704ZM1734.76 354.712C1681.01 384.16 1636 429.355 1620.44 474.487C1622.74 478.269 1624.72 482.051 1626.33 485.833C1641.83 440.7 1688.58 398.853 1744.87 374.303C1742.08 367.731 1738.73 361.221 1734.76 354.712Z" fill="white"/>
<path d="M1711.14 324.706C1716.47 330.596 1721.31 336.609 1725.71 342.623C1674.38 375.233 1631.11 422.287 1615.67 467.172C1613.13 463.638 1610.28 460.167 1607.18 456.757C1622.61 411.81 1663.41 361.78 1711.14 324.706Z" fill="white"/>
<path d="M1711.14 324.706C1716.47 330.596 1721.31 336.609 1725.71 342.623C1674.38 375.233 1631.11 422.287 1615.67 467.172C1613.13 463.638 1610.28 460.167 1607.18 456.757C1622.61 411.81 1663.41 361.78 1711.14 324.706ZM1711.58 323.838C1663.59 361.036 1622.49 411.438 1606.99 456.509C1610.28 460.105 1613.25 463.762 1615.86 467.482C1631.35 422.349 1675.06 375.171 1726.83 342.685C1722.3 336.361 1717.22 330.038 1711.58 323.838Z" fill="white"/>
<path d="M1392.36 465.684C1392.8 462.336 1393.54 459.113 1394.53 455.951C1371.59 522.658 1278.04 552.106 1185.61 521.728C1183.19 529.416 1181.45 537.289 1180.4 545.348C1274.51 568.101 1369.42 532.391 1392.36 465.684Z" fill="white"/>
<path d="M1392.36 465.684C1392.8 462.336 1393.54 459.113 1394.53 455.951C1371.59 522.658 1278.04 552.106 1185.61 521.728C1183.19 529.416 1181.45 537.289 1180.4 545.349C1274.51 568.101 1369.42 532.391 1392.36 465.684ZM1392.3 466.056C1369.36 532.763 1274.38 568.597 1180.27 546.154C1181.39 537.599 1183.25 529.168 1185.85 520.984C1278.17 551.61 1371.66 522.348 1394.59 455.641C1393.54 458.989 1392.8 462.46 1392.3 466.056Z" fill="white"/>
<path d="M1392.49 483.353C1391.99 479.881 1391.8 476.409 1391.87 473C1368.93 539.707 1273.64 580.004 1179.1 563.017C1178.97 571.263 1179.47 579.632 1180.65 588.125C1274.63 596.991 1369.49 550.06 1392.49 483.353Z" fill="white"/>
<path d="M1392.49 483.353C1391.99 479.881 1391.8 476.409 1391.87 473C1368.93 539.707 1273.64 580.004 1179.1 563.017C1178.97 571.263 1179.47 579.632 1180.65 588.125C1274.63 596.991 1369.49 550.06 1392.49 483.353ZM1392.49 483.725C1369.55 550.432 1274.69 597.549 1180.71 588.931C1179.41 579.88 1178.85 570.953 1179.03 562.211C1273.58 579.446 1368.87 539.397 1391.8 472.69C1391.74 476.285 1391.99 480.005 1392.49 483.725Z" fill="white"/>
<path d="M1397.45 501.642C1396.02 498.046 1394.84 494.512 1393.97 490.978C1371.04 557.686 1277.11 609.39 1184.24 606.538C1186.41 615.094 1189.2 623.711 1192.74 632.39C1282.82 626.873 1374.51 568.349 1397.45 501.642Z" fill="white"/>
<path d="M1397.45 501.642C1396.02 498.046 1394.84 494.512 1393.97 490.978C1371.04 557.686 1277.11 609.39 1184.24 606.538C1186.41 615.093 1189.2 623.711 1192.74 632.39C1282.82 626.873 1374.51 568.349 1397.45 501.642ZM1397.57 502.014C1374.63 568.721 1283.06 627.431 1192.98 633.196C1189.2 624.021 1186.23 614.845 1183.93 605.732C1276.86 608.894 1370.85 557.376 1393.79 490.668C1394.78 494.388 1396.02 498.17 1397.57 502.014Z" fill="white"/>
<path d="M1407.43 519.992C1405.01 516.459 1402.84 512.925 1401.04 509.329C1378.1 576.036 1288.71 639.458 1201.35 650.989C1205.82 659.606 1211.02 668.224 1216.85 676.779C1299.12 656.879 1384.49 586.7 1407.43 519.992Z" fill="white"/>
<path d="M1407.43 519.992C1405.01 516.459 1402.84 512.925 1401.04 509.329C1378.1 576.036 1288.71 639.458 1201.35 650.989C1205.82 659.606 1211.02 668.224 1216.85 676.779C1299.12 656.879 1384.49 586.7 1407.43 519.992ZM1407.67 520.364C1384.74 587.072 1299.55 657.499 1217.41 677.647C1211.15 668.534 1205.63 659.421 1200.86 650.245C1288.33 638.962 1377.85 575.788 1400.79 509.081C1402.78 512.801 1405.07 516.583 1407.67 520.364Z" fill="white"/>
<path d="M1422.43 537.785C1420.76 536.173 1419.14 534.437 1417.59 532.763C1416.04 531.028 1414.56 529.292 1413.13 527.556C1390.19 594.263 1308.48 669.278 1230.62 695.13C1234.02 699.346 1237.68 703.499 1241.46 707.653C1245.25 711.807 1249.15 715.898 1253.18 719.866C1323.67 686.016 1399.49 604.492 1422.43 537.785Z" fill="white"/>
<path d="M1422.43 537.785C1420.76 536.173 1419.14 534.437 1417.59 532.763C1416.04 531.027 1414.56 529.292 1413.13 527.556C1390.19 594.263 1308.48 669.278 1230.62 695.13C1234.02 699.345 1237.68 703.499 1241.46 707.653C1245.25 711.807 1249.15 715.898 1253.18 719.866C1323.67 686.016 1399.49 604.492 1422.43 537.785ZM1422.74 538.095C1399.8 604.802 1324.23 686.512 1253.93 720.61C1249.65 716.394 1245.49 712.055 1241.46 707.653C1237.43 703.251 1233.59 698.788 1230 694.262C1308.05 668.72 1389.94 593.891 1412.88 527.184C1414.37 529.044 1415.98 530.903 1417.66 532.701C1419.27 534.561 1420.94 536.359 1422.74 538.095Z" fill="white"/>
<path d="M1441.09 553.408C1437.18 550.68 1433.46 547.766 1429.87 544.667C1406.93 611.374 1335.88 697.238 1271.16 736.481C1279.84 743.92 1288.89 750.926 1298.31 757.56C1354.23 711.497 1418.15 620.053 1441.09 553.408Z" fill="white"/>
<path d="M1441.09 553.408C1437.18 550.68 1433.46 547.766 1429.87 544.667C1406.93 611.374 1335.88 697.238 1271.16 736.481C1279.84 743.92 1288.89 750.926 1298.31 757.56C1354.23 711.497 1418.15 620.053 1441.09 553.408ZM1441.46 553.656C1418.52 620.363 1354.85 711.931 1299.24 758.241C1289.2 751.174 1279.53 743.735 1270.35 735.799C1335.33 696.804 1406.56 611.064 1429.56 544.357C1433.34 547.642 1437.31 550.742 1441.46 553.656Z" fill="white"/>
<path d="M1462.29 566.055C1458.01 563.885 1453.8 561.529 1449.71 559.049C1426.77 625.757 1368.31 720.796 1319.21 771.322C1329.06 777.398 1339.29 783.04 1349.71 788.309C1388.89 732.265 1439.35 632.762 1462.29 566.055Z" fill="white"/>
<path d="M1462.29 566.055C1458.02 563.885 1453.8 561.529 1449.71 559.049C1426.77 625.757 1368.31 720.796 1319.21 771.322C1329.06 777.398 1339.29 783.04 1349.71 788.309C1388.89 732.265 1439.35 632.762 1462.29 566.055ZM1462.73 566.303C1439.79 633.01 1389.63 732.637 1350.7 788.867C1339.6 783.288 1328.75 777.274 1318.28 770.764C1367.75 720.424 1426.4 625.509 1449.34 558.802C1453.61 561.467 1458.08 564.009 1462.73 566.303Z" fill="white"/>
<path d="M1485.23 575.664C1480.64 574.115 1476.12 572.379 1471.72 570.457C1448.78 637.164 1404.33 739.457 1372.52 798.973C1383.25 803.622 1394.22 807.776 1405.26 811.558C1426.52 748.012 1462.29 642.372 1485.23 575.664Z" fill="white"/>
<path d="M1485.23 575.664C1480.64 574.114 1476.12 572.378 1471.72 570.457C1448.78 637.164 1404.33 739.457 1372.52 798.972C1383.25 803.622 1394.22 807.776 1405.26 811.557C1426.52 748.012 1462.29 642.371 1485.23 575.664ZM1485.66 575.85C1462.73 642.557 1427.2 748.26 1406.31 811.929C1394.53 807.962 1382.88 803.498 1371.47 798.538C1403.64 739.209 1448.34 636.978 1471.28 570.271C1475.99 572.316 1480.83 574.176 1485.66 575.85Z" fill="white"/>
<path d="M1509.22 581.988C1504.51 581.12 1499.86 580.004 1495.21 578.702C1472.27 645.409 1442.76 752.972 1429.37 818.935C1440.59 822.035 1451.94 824.639 1463.28 826.808C1465.7 758.303 1486.29 648.695 1509.22 581.988Z" fill="white"/>
<path d="M1509.22 581.988C1504.51 581.12 1499.86 580.004 1495.21 578.702C1472.27 645.409 1442.76 752.972 1429.37 818.935C1440.59 822.035 1451.94 824.638 1463.28 826.808C1465.7 758.303 1486.28 648.695 1509.22 581.988ZM1509.66 582.05C1486.72 648.757 1466.45 758.427 1464.34 827.056C1452.25 824.762 1440.22 821.973 1428.26 818.687C1442.02 752.786 1471.78 645.347 1494.72 578.64C1499.68 580.004 1504.7 581.12 1509.66 582.05Z" fill="white"/>
<path d="M1533.4 584.84C1528.75 584.654 1524.04 584.22 1519.39 583.662C1496.45 650.369 1482.32 761.031 1487.83 830.838C1499.18 832.326 1510.53 833.256 1521.81 833.752C1505.26 762.953 1510.46 651.547 1533.4 584.84Z" fill="white"/>
<path d="M1533.4 584.84C1528.75 584.654 1524.04 584.22 1519.39 583.662C1496.45 650.369 1482.32 761.031 1487.83 830.838C1499.18 832.326 1510.53 833.256 1521.81 833.752C1505.26 762.953 1510.46 651.547 1533.4 584.84ZM1533.84 584.84C1510.9 651.547 1506 763.015 1522.86 833.752C1510.9 833.256 1498.81 832.264 1486.72 830.652C1481.51 760.907 1495.96 650.245 1518.89 583.538C1523.92 584.22 1528.88 584.654 1533.84 584.84Z" fill="white"/>
<path d="M1557.02 583.972C1552.56 584.53 1548.03 584.84 1543.38 584.964C1520.44 651.671 1521.62 763.139 1545.99 834C1557.08 833.752 1568.12 832.946 1578.91 831.644C1543.88 761.527 1534.02 650.679 1557.02 583.972Z" fill="white"/>
<path d="M1557.02 583.972C1552.56 584.53 1548.03 584.84 1543.38 584.964C1520.44 651.671 1521.62 763.139 1545.99 834C1557.08 833.752 1568.12 832.946 1578.91 831.644C1543.88 761.527 1534.02 650.679 1557.02 583.972ZM1557.46 583.91C1534.52 650.617 1544.62 761.465 1580.02 831.52C1568.49 832.946 1556.77 833.752 1544.93 834C1520.88 763.139 1520.01 651.671 1542.95 584.964C1547.85 584.84 1552.68 584.468 1557.46 583.91Z" fill="white"/>
<path d="M1579.28 579.198C1575.12 580.5 1570.91 581.616 1566.57 582.422C1543.63 649.129 1559.5 759.047 1602.09 827.924C1612.63 825.878 1622.92 823.213 1632.9 820.051C1580.27 753.778 1556.28 645.905 1579.28 579.198Z" fill="white"/>
<path d="M1579.28 579.198C1575.12 580.5 1570.91 581.616 1566.57 582.422C1543.63 649.129 1559.5 759.047 1602.09 827.925C1612.63 825.879 1622.92 823.213 1632.9 820.051C1580.27 753.778 1556.28 645.905 1579.28 579.198ZM1579.65 579.074C1556.71 645.781 1580.95 753.53 1633.77 819.803C1623.17 823.213 1612.2 826.003 1600.98 828.173C1558.76 759.233 1543.13 649.253 1566.07 582.546C1570.72 581.616 1575.25 580.5 1579.65 579.074Z" fill="white"/>
<path d="M1598.99 570.519C1595.58 572.503 1591.93 574.362 1587.96 575.974C1565.02 642.682 1594.53 748.508 1653.92 812.364C1663.41 808.396 1672.33 803.994 1680.58 799.158C1612.63 739.581 1576.05 637.226 1598.99 570.519Z" fill="white"/>
<path d="M1598.99 570.519C1595.58 572.503 1591.93 574.362 1587.96 575.974C1565.02 642.682 1594.53 748.508 1653.92 812.364C1663.41 808.396 1672.33 803.994 1680.58 799.158C1612.63 739.581 1576.05 637.226 1598.99 570.519ZM1599.3 570.333C1576.36 637.04 1613.13 739.271 1681.45 798.663C1672.64 803.808 1663.22 808.52 1653.05 812.735C1593.97 748.756 1564.65 642.868 1587.59 576.16C1591.8 574.424 1595.71 572.503 1599.3 570.333Z" fill="white"/>
<path d="M1614.37 558.864C1611.83 561.405 1609.04 563.761 1606 565.993C1583.06 632.7 1624.04 732.141 1697.57 788.123C1704.94 782.73 1711.76 776.964 1717.9 770.888C1637.8 720.486 1591.43 625.571 1614.37 558.864Z" fill="white"/>
<path d="M1614.37 558.864C1611.83 561.405 1609.04 563.761 1606 565.993C1583.06 632.7 1624.04 732.141 1697.57 788.123C1704.94 782.73 1711.76 776.964 1717.9 770.889C1637.8 720.486 1591.43 625.571 1614.37 558.864ZM1614.62 558.616C1591.68 625.323 1638.17 720.052 1718.46 770.269C1711.95 776.778 1704.76 782.916 1696.82 788.619C1623.54 732.451 1582.69 632.886 1605.63 566.179C1608.97 563.823 1611.95 561.281 1614.62 558.616Z" fill="white"/>
<path d="M1625.22 544.729C1623.54 547.643 1621.68 550.494 1619.51 553.222C1596.58 619.929 1646.17 711.249 1730.24 757.188C1735.51 750.616 1740.09 743.797 1744.06 736.667C1655.47 697.362 1602.28 611.436 1625.22 544.729Z" fill="white"/>
<path d="M1625.22 544.729C1623.54 547.642 1621.68 550.494 1619.51 553.222C1596.58 619.929 1646.17 711.249 1730.24 757.188C1735.51 750.616 1740.09 743.797 1744.06 736.667C1655.47 697.362 1602.28 611.436 1625.22 544.729ZM1625.34 544.419C1602.4 611.126 1655.72 696.866 1744.43 735.923C1740.22 743.487 1735.32 750.802 1729.68 757.746C1645.74 711.621 1596.27 620.115 1619.2 553.408C1621.62 550.618 1623.61 547.58 1625.34 544.419Z" fill="white"/>
<path d="M1629.56 535.057C1629.18 536.111 1628.81 537.165 1628.38 538.219C1605.44 604.926 1660.62 686.699 1751.69 720.858C1752.74 718.316 1753.67 715.774 1754.54 713.233C1662.54 681.553 1606.56 601.765 1629.56 535.057Z" fill="white"/>
<path d="M1629.56 535.057C1629.18 536.111 1628.81 537.165 1628.38 538.219C1605.44 604.926 1660.62 686.699 1751.69 720.858C1752.74 718.316 1753.67 715.774 1754.54 713.233C1662.54 681.553 1606.56 601.765 1629.56 535.057ZM1629.56 535.057C1606.62 601.765 1662.6 681.553 1754.6 713.233C1753.61 716.022 1752.56 718.812 1751.44 721.602C1660.49 687.194 1605.32 605.236 1628.25 538.529C1628.69 537.351 1629.12 536.235 1629.56 535.057Z" fill="white"/>
<path d="M1342.64 340.143C1343.39 334.439 1344.63 328.86 1346.36 323.404C1388.7 360.043 1409.16 409.082 1395.46 453.285C1396.14 450.805 1396.27 450.371 1396.64 448.015C1401.54 396.683 1369.98 361.035 1342.64 340.143Z" fill="white"/>
<path d="M1342.64 340.143C1343.39 334.439 1344.63 328.86 1346.36 323.404C1388.7 360.044 1409.16 409.082 1395.46 453.285C1396.14 450.805 1396.27 450.371 1396.64 448.015C1401.54 396.683 1369.98 361.036 1342.64 340.143ZM1341.9 340.205C1380.52 368.847 1401.72 408.462 1396.64 447.891C1396.27 450.061 1396.14 450.743 1395.4 453.471C1409.53 408.896 1388.77 359.238 1345.86 322.288C1344.01 328.116 1342.64 334.067 1341.9 340.205Z" fill="white"/>
<path d="M1342.77 370.397C1341.9 364.383 1341.59 358.432 1341.65 352.604C1376.8 376.472 1397.45 409.888 1396.76 445.102V443.862C1396.76 443.552 1396.7 443.18 1396.7 442.87C1391.25 412.12 1374.57 389.801 1342.77 370.397Z" fill="white"/>
<path d="M1342.77 370.397C1341.9 364.383 1341.59 358.432 1341.65 352.604C1376.8 376.472 1397.45 409.888 1396.76 445.101V443.862C1396.76 443.552 1396.7 443.18 1396.7 442.87C1391.25 412.12 1374.57 389.801 1342.77 370.397ZM1342.21 370.645C1372.9 388.189 1392.55 413.856 1396.7 442.932C1396.7 443.242 1396.76 443.614 1396.76 443.924C1396.76 444.295 1396.76 444.853 1396.76 445.287C1397.57 409.702 1376.68 375.728 1340.97 351.674C1340.91 357.874 1341.28 364.197 1342.21 370.645Z" fill="white"/>
<path d="M1351.32 401.766C1348.84 395.629 1346.86 389.553 1345.31 383.478C1372.4 397.427 1390.63 418.319 1396.76 442.994C1396.95 443.49 1397.14 444.233 1397.32 444.729L1397.63 445.535C1390.01 426.565 1373.89 411.376 1351.32 401.766Z" fill="white"/>
<path d="M1351.32 401.766C1348.84 395.629 1346.86 389.553 1345.31 383.478C1372.4 397.427 1390.63 418.319 1396.76 442.994C1396.95 443.49 1397.14 444.233 1397.32 444.729L1397.63 445.535C1390.01 426.565 1373.89 411.376 1351.32 401.766ZM1350.95 402.138C1375.25 413.112 1388.77 425.697 1397.69 445.721L1397.32 444.729C1397.14 444.171 1396.89 443.49 1396.76 442.932C1391.62 425.015 1381.02 401.952 1344.56 382.548C1346.11 389.057 1348.28 395.567 1350.95 402.138Z" fill="white"/>
<path d="M1368.43 433.26C1364.28 427.185 1360.62 421.109 1357.46 414.972C1377.05 422.039 1391.49 433.818 1399.43 449.255L1400.98 452.045C1401.91 453.471 1403.03 455.331 1404.02 456.757C1396.39 445.535 1384.3 437.476 1368.43 433.26Z" fill="white"/>
<path d="M1368.43 433.26C1364.28 427.185 1360.62 421.109 1357.46 414.972C1377.05 422.039 1391.49 433.818 1399.43 449.255L1400.98 452.045C1401.91 453.471 1403.02 455.331 1404.02 456.757C1396.39 445.535 1384.3 437.476 1368.43 433.26ZM1368.31 433.694C1380.09 437.104 1393.54 442.064 1404.2 457.005C1403.21 455.517 1401.91 453.533 1400.98 452.045C1400.48 451.177 1399.8 449.999 1399.31 449.069C1391.31 433.322 1376.55 421.295 1356.53 414.166C1359.94 420.737 1363.84 427.247 1368.31 433.694Z" fill="white"/>
<path d="M1394.16 463.824C1391.31 461.035 1388.52 458.121 1385.85 455.207C1383.19 452.231 1380.64 449.317 1378.16 446.342C1388.83 448.821 1399.18 451.983 1408.98 463.452L1413.25 468.412L1418.59 473.992C1412.82 468.04 1404.51 464.568 1394.16 463.824Z" fill="white"/>
<path d="M1394.16 463.824C1391.31 461.034 1388.52 458.121 1385.85 455.207C1383.19 452.231 1380.64 449.317 1378.16 446.341C1388.83 448.821 1399.18 451.983 1408.98 463.452L1413.25 468.412L1418.59 473.991C1412.82 468.04 1404.51 464.568 1394.16 463.824ZM1394.28 464.32C1404.76 465.002 1413.13 468.412 1419.08 474.301L1413.38 468.35C1412.01 466.8 1410.15 464.692 1408.85 463.08C1401.23 454.463 1393.91 449.131 1377.3 445.597C1379.9 448.759 1382.63 451.983 1385.48 455.083C1388.27 458.245 1391.18 461.344 1394.28 464.32Z" fill="white"/>
<path d="M1426.21 490.544C1419.52 485.833 1413.13 480.873 1406.99 475.603C1415.49 475.417 1422.31 477.587 1427.33 481.865L1428.57 482.919C1432.41 485.957 1437.56 490.048 1441.59 492.9C1437.74 490.172 1432.53 489.366 1426.21 490.544Z" fill="white"/>
<path d="M1426.21 490.544C1419.52 485.833 1413.13 480.873 1406.99 475.603C1415.49 475.417 1422.31 477.587 1427.33 481.865L1428.57 482.919C1432.41 485.957 1437.56 490.048 1441.59 492.9C1437.74 490.172 1432.53 489.366 1426.21 490.544ZM1426.46 491.04C1432.91 489.738 1438.18 490.482 1442.02 493.21C1437.93 490.172 1432.47 486.081 1428.57 482.857L1426.96 481.493C1421.81 477.029 1414.74 474.859 1406 475.045C1412.51 480.687 1419.33 486.019 1426.46 491.04Z" fill="white"/>
<path d="M1462.54 512.305C1455.16 508.585 1447.97 504.555 1440.97 500.278C1445.99 498.542 1450.08 498.604 1453.06 500.464C1458.26 503.439 1465.21 507.407 1470.54 510.197C1468.68 509.267 1466.01 509.949 1462.54 512.305Z" fill="white"/>
<path d="M1462.54 512.305C1455.16 508.585 1447.97 504.555 1440.97 500.278C1445.99 498.542 1450.08 498.604 1453.06 500.464C1458.26 503.439 1465.21 507.407 1470.54 510.197C1468.68 509.267 1466.01 509.949 1462.54 512.305ZM1463.1 512.801C1466.57 510.321 1469.3 509.577 1471.1 510.507L1470.66 510.259C1465.14 507.283 1457.89 503.315 1452.5 500.154C1449.46 498.232 1445.24 498.17 1439.97 499.968C1447.48 504.555 1455.16 508.833 1463.1 512.801Z" fill="white"/>
<path d="M1501.97 528.796C1494.1 526.13 1486.35 523.154 1478.78 519.868C1481.2 517.14 1482.94 516.024 1483.99 516.458L1495.65 521.17L1503.46 523.96C1503.46 523.96 1503.02 525.572 1501.97 528.796Z" fill="white"/>
<path d="M1501.97 528.795C1494.1 526.13 1486.35 523.154 1478.78 519.868C1481.2 517.14 1482.94 516.024 1483.99 516.458L1495.65 521.17L1503.46 523.96C1503.46 523.96 1503.02 525.572 1501.97 528.795ZM1502.65 529.229C1503.71 525.882 1504.14 524.146 1504.02 524.146L1495.58 521.17L1483.31 516.21C1482.19 515.714 1480.4 516.892 1477.85 519.744C1486.04 523.278 1494.28 526.44 1502.65 529.229Z" fill="white"/>
<path d="M1543.07 539.645C1535.01 538.095 1527.02 536.235 1519.02 534.065C1519.08 530.531 1518.58 528.61 1517.72 528.362L1521.68 529.416C1526.46 530.531 1532.78 532.019 1537.62 533.011C1539.85 533.383 1541.65 535.615 1543.07 539.645Z" fill="white"/>
<path d="M1543.07 539.645C1535.01 538.095 1527.02 536.235 1519.02 534.065C1519.08 530.531 1518.58 528.61 1517.72 528.362L1521.68 529.416C1526.46 530.531 1532.78 532.019 1537.62 533.011C1539.85 533.383 1541.65 535.615 1543.07 539.645ZM1543.94 540.017C1542.45 535.801 1540.53 533.507 1538.3 533.135C1533.34 532.081 1526.64 530.655 1521.75 529.416L1517.1 528.176C1517.96 528.424 1518.4 530.346 1518.27 534.065C1526.77 536.421 1535.39 538.405 1543.94 540.017Z" fill="white"/>
<path d="M1584.55 544.481C1576.55 544.171 1568.55 543.427 1560.49 542.435C1558.51 539.521 1556.09 535.863 1551.81 535.305C1557.46 535.863 1565.02 536.607 1570.66 536.917C1574.38 537.351 1578.29 537.847 1584.55 544.481Z" fill="white"/>
<path d="M1584.55 544.48C1576.55 544.171 1568.55 543.427 1560.49 542.435C1558.51 539.521 1556.09 535.863 1551.81 535.305C1557.46 535.863 1565.02 536.607 1570.66 536.917C1574.38 537.351 1578.29 537.847 1584.55 544.48ZM1585.6 544.79C1581.2 540.451 1577.85 537.537 1571.28 536.917C1565.27 536.483 1557.21 535.863 1551.19 535.181C1554.42 535.615 1557.33 538.033 1559.87 542.559C1568.49 543.675 1577.05 544.418 1585.6 544.79Z" fill="white"/>
<path d="M1625.03 542.993C1617.34 543.923 1609.59 544.48 1601.66 544.666C1595.58 539.397 1589.38 536.855 1583.25 537.041C1586.78 536.855 1591.43 536.669 1594.9 536.359L1599.24 535.925C1607.61 534.871 1616.35 537.227 1625.03 542.993Z" fill="white"/>
<path d="M1625.03 542.992C1617.34 543.922 1609.59 544.48 1601.66 544.666C1595.58 539.397 1589.38 536.855 1583.25 537.041C1586.78 536.855 1591.43 536.669 1594.9 536.359L1599.24 535.925C1607.61 534.871 1616.35 537.227 1625.03 542.992ZM1626.21 543.178C1617.28 537.227 1608.35 534.747 1599.8 535.863L1594.96 536.359C1591.31 536.607 1586.41 536.917 1582.75 537.041C1588.95 536.855 1595.21 539.521 1601.29 544.914C1609.66 544.728 1618.03 544.17 1626.21 543.178Z" fill="white"/>
<path d="M1663.22 534.809C1656.15 537.041 1648.84 538.901 1641.4 540.389C1630.36 534.313 1619.51 532.267 1609.41 534.313L1613.38 533.445C1615.67 532.825 1618.65 532.081 1620.94 531.399C1633.77 527.246 1648.22 528.424 1663.22 534.809Z" fill="white"/>
<path d="M1663.22 534.809C1656.15 537.041 1648.84 538.901 1641.4 540.389C1630.36 534.313 1619.51 532.267 1609.41 534.313L1613.38 533.445C1615.67 532.825 1618.65 532.081 1620.94 531.399C1633.77 527.246 1648.22 528.424 1663.22 534.809ZM1664.46 534.809C1655.53 531.337 1640.59 525.448 1621.19 531.337C1618.83 532.019 1615.73 532.887 1613.31 533.507L1608.91 534.437C1619.08 532.453 1629.99 534.561 1641.09 540.823C1649.15 539.273 1656.9 537.289 1664.46 534.809Z" fill="white"/>
<path d="M1697.13 519.992C1691.24 523.402 1684.98 526.564 1678.22 529.354C1668.86 526.378 1649.33 520.178 1627.45 529.044C1631.35 527.308 1631.35 527.308 1633.09 526.316C1653.05 515.715 1671.65 513.917 1697.13 519.992Z" fill="white"/>
<path d="M1697.13 519.992C1691.24 523.402 1684.98 526.564 1678.22 529.353C1668.86 526.378 1649.33 520.178 1627.45 529.043C1631.35 527.308 1631.35 527.308 1633.09 526.316C1653.05 515.714 1671.65 513.917 1697.13 519.992ZM1698.37 519.806C1674.01 513.297 1651.32 515.528 1633.28 526.192C1630.49 527.68 1629.99 527.928 1627.26 529.105C1642.27 522.906 1659.81 523.092 1678.16 529.787C1685.41 526.874 1692.11 523.526 1698.37 519.806Z" fill="white"/>
<path d="M1723.54 499.906C1719.2 504.246 1714.37 508.337 1709.16 512.119C1680.64 506.291 1654.6 510.755 1635.01 525.076C1635.2 524.952 1635.38 524.766 1635.57 524.642L1635.26 524.952C1656.34 503.998 1688.02 495.318 1723.54 499.906Z" fill="white"/>
<path d="M1723.54 499.906C1719.2 504.245 1714.37 508.337 1709.16 512.119C1680.64 506.291 1654.6 510.755 1635.01 525.076C1635.2 524.952 1635.38 524.766 1635.57 524.642L1635.26 524.952C1656.34 503.997 1688.02 495.318 1723.54 499.906ZM1724.72 499.596C1688.64 494.822 1656.52 503.626 1635.2 525.014L1635.51 524.704L1634.89 525.138C1654.54 510.879 1680.7 506.539 1709.28 512.677C1714.99 508.585 1720.07 504.245 1724.72 499.596Z" fill="white"/>
<path d="M1742.08 475.665C1739.29 480.687 1736 485.585 1732.28 490.234C1691.3 487.011 1655.53 499.534 1634.27 526.192C1633.21 527.618 1633.09 527.742 1632.47 528.796L1631.91 529.726C1651.63 494.326 1693.23 475.169 1742.08 475.665Z" fill="white"/>
<path d="M1742.08 475.665C1739.29 480.687 1736 485.585 1732.28 490.234C1691.3 487.011 1655.53 499.534 1634.27 526.192C1633.21 527.618 1633.09 527.742 1632.47 528.796L1631.91 529.726C1651.63 494.326 1693.23 475.169 1742.08 475.665ZM1743.19 475.231C1693.72 474.611 1651.63 494.016 1631.85 529.85L1632.47 528.796C1633.59 526.998 1633.65 526.998 1634.33 526.13C1655.78 499.596 1691.68 487.259 1732.72 490.792C1736.69 485.771 1740.22 480.625 1743.19 475.231Z" fill="white"/>
<path d="M1749.52 459.112C1748.9 460.91 1748.22 462.77 1747.47 464.506C1692.85 466.614 1647.35 491.35 1630.24 533.197L1629.56 535.057C1644.99 490.172 1692.23 462.646 1749.52 459.112Z" fill="white"/>
<path d="M1749.52 459.113C1748.9 460.911 1748.22 462.77 1747.47 464.506C1692.85 466.614 1647.35 491.35 1630.24 533.197L1629.56 535.057C1644.99 490.172 1692.23 462.646 1749.52 459.113ZM1750.39 459.051C1692.73 462.398 1645.06 489.924 1629.56 535.057L1630.3 533.011C1647.66 491.226 1693.35 466.738 1748.09 464.94C1748.9 463.018 1749.64 461.035 1750.39 459.051Z" fill="white"/>
<path d="M319.601 563.395L363.73 497.06C364.441 495.969 365.153 495.186 365.865 494.712C366.624 494.237 367.359 494 368.071 494C368.973 494 369.708 494.38 370.278 495.139C370.894 495.851 371.203 496.752 371.203 497.843V568.306C371.203 569.682 371.037 570.868 370.705 571.865C370.372 572.814 369.518 573.288 368.142 573.288C366.956 573.288 366.149 572.814 365.722 571.865C365.343 570.868 365.153 569.682 365.153 568.306V505.103L323.089 567.167C321.95 568.781 320.788 569.587 319.601 569.587C318.32 569.587 317.158 568.781 316.114 567.167L274.05 505.103V568.306C274.05 569.682 273.836 570.868 273.409 571.865C273.03 572.814 272.247 573.288 271.06 573.288C269.684 573.288 268.83 572.814 268.498 571.865C268.166 570.868 268 569.682 268 568.306V497.843C268 496.752 268.285 495.851 268.854 495.139C269.471 494.38 270.23 494 271.132 494C271.796 494 272.484 494.237 273.196 494.712C273.955 495.186 274.714 495.969 275.473 497.06L319.601 563.395Z" fill="white"/>
<path d="M426.79 497.63C427.549 496.254 428.142 495.305 428.569 494.783C428.996 494.261 429.637 494 430.491 494C431.155 494 431.725 494.261 432.199 494.783C432.721 495.257 433.386 496.206 434.192 497.63L473.48 568.52C474.002 569.469 474.263 570.394 474.263 571.295C474.263 572.149 474.026 572.814 473.552 573.288C473.077 573.763 472.508 574 471.843 574C471.179 574 470.515 573.763 469.851 573.288C469.234 572.861 468.593 572.055 467.929 570.868L455.829 548.947H405.153L392.911 571.153C392.389 572.149 391.772 572.861 391.06 573.288C390.396 573.763 389.732 574 389.068 574C388.261 574 387.668 573.715 387.288 573.146C386.909 572.577 386.719 571.817 386.719 570.868C386.719 570.489 386.79 570.109 386.932 569.73C387.122 569.35 387.336 568.923 387.573 568.448L426.79 497.63ZM453.765 544.747L430.491 502.256L407.217 544.747H453.765Z" fill="white"/>
<path d="M569.851 564.178V499.409C569.851 498.698 569.874 498.033 569.922 497.416C569.969 496.752 570.088 496.183 570.278 495.708C570.515 495.186 570.823 494.783 571.203 494.498C571.63 494.166 572.199 494 572.911 494C574.145 494 574.951 494.546 575.331 495.637C575.711 496.681 575.9 497.938 575.9 499.409V568.733C575.9 571.77 575.094 573.288 573.48 573.288C572.389 573.288 571.037 572.553 569.423 571.082L496.043 503.11V568.306C496.043 569.682 495.829 570.868 495.402 571.865C495.023 572.814 494.263 573.288 493.125 573.288C491.749 573.288 490.871 572.814 490.491 571.865C490.159 570.868 489.993 569.682 489.993 568.306V498.626C489.993 497.203 490.254 496.112 490.776 495.352C491.298 494.593 492.009 494.214 492.911 494.214C494.097 494.214 495.473 494.925 497.039 496.349L569.851 564.178Z" fill="white"/>
<path d="M631.63 497.63C632.389 496.254 632.982 495.305 633.409 494.783C633.836 494.261 634.477 494 635.331 494C635.995 494 636.565 494.261 637.039 494.783C637.561 495.257 638.225 496.206 639.032 497.63L678.32 568.52C678.842 569.469 679.103 570.394 679.103 571.295C679.103 572.149 678.866 572.814 678.391 573.288C677.917 573.763 677.348 574 676.683 574C676.019 574 675.355 573.763 674.69 573.288C674.074 572.861 673.433 572.055 672.769 570.868L660.669 548.947H609.993L597.751 571.153C597.229 572.149 596.612 572.861 595.9 573.288C595.236 573.763 594.572 574 593.907 574C593.101 574 592.508 573.715 592.128 573.146C591.749 572.577 591.559 571.817 591.559 570.868C591.559 570.489 591.63 570.109 591.772 569.73C591.962 569.35 592.176 568.923 592.413 568.448L631.63 497.63ZM658.605 544.747L635.331 502.256L612.057 544.747H658.605Z" fill="white"/>
<rect x="712" y="494" width="80" height="80" rx="8" fill="white"/>
<path d="M775.934 527.458C776.842 520.709 771.722 517.185 764.702 514.803L766.882 505.672L761.332 504.332L759.218 513.265C757.748 512.918 756.261 512.57 754.791 512.272L756.905 503.34L751.29 502L749.109 511.131C747.92 510.85 746.714 510.635 745.525 510.354L737.877 508.517L736.473 514.423C736.473 514.423 740.619 515.333 740.471 515.415C742.717 515.978 743.146 517.45 743.064 518.575L740.603 528.98C740.751 529.046 740.95 529.046 741.164 529.195C740.95 529.128 740.818 529.128 740.603 529.062L737.233 543.619C736.952 544.314 736.242 545.306 734.706 544.959C734.772 545.025 730.626 543.966 730.626 543.966L728 550.368L735.235 552.055C736.573 552.403 737.91 552.684 739.166 553.048L736.985 562.262L742.535 563.601L744.716 554.47C746.268 554.884 747.738 555.248 749.142 555.595L746.962 564.66L752.512 566L754.692 556.786C764.173 558.474 771.259 557.696 774.133 549.045C776.446 542.147 773.918 538.21 768.864 535.613C772.564 534.769 775.24 532.371 775.934 527.458ZM763.446 545.372C761.828 552.27 750.183 548.681 746.45 547.771L749.324 535.53C753.123 536.456 765.131 538.144 763.446 545.372ZM764.982 527.458C763.512 533.711 753.817 530.7 750.662 529.922L753.338 518.823C756.426 519.584 766.535 520.924 764.982 527.458Z" fill="#00FF56"/>
</svg>
